<svg xmlns="http://www.w3.org/2000/svg" xmlns:xlink="http://www.w3.org/1999/xlink" xmlns:lucid="lucid" width="1200.58" height="965.25"><g transform="translate(-279.423331850443 316.2939188148057)" lucid:page-tab-id="yW2px_WHSxB."><path d="M280-314.3a2 2 0 0 1 2-2h1196a2 2 0 0 1 2 2v961.26a2 2 0 0 1-2 2H282a2 2 0 0 1-2-2z" fill="#f6f6f6"/><path d="M331.72-288.2c.02-2.28.85-4.22 2.48-5.8 1.64-1.6 3.6-2.4 5.87-2.38 1.06-.02 2.07.17 3.03.56.97.4 1.84.95 2.58 1.7l-1.63 1.56c-1.13-1.08-2.44-1.6-3.98-1.6-1.06 0-2.07.27-3 .8-.9.54-1.63 1.28-2.15 2.2-.53.93-.76 1.93-.74 3-.02 1.05.2 2.04.74 2.97.52.94 1.24 1.67 2.16 2.2.92.55 1.93.8 3 .8.77.05 1.5-.08 2.22-.37.7-.28 1.33-.7 1.88-1.25.74-.8 1.15-1.74 1.22-2.82h-5.33v-2.3h7.47c.1.45.14.92.14 1.4.07 2-.6 3.73-1.95 5.2-.74.78-1.6 1.37-2.58 1.77-1 .4-2.02.58-3.08.54-2.28 0-4.23-.78-5.87-2.38-1.63-1.6-2.46-3.54-2.48-5.8zM353.75-290.57c-1.45 0-2.7.52-3.72 1.55-1.04 1.03-1.54 2.27-1.54 3.73s.5 2.7 1.55 3.73c1.03 1.03 2.28 1.54 3.73 1.54 1.45 0 2.7-.52 3.72-1.55 1.04-1.02 1.54-2.26 1.54-3.72.03-.95-.2-1.83-.66-2.65-.46-.83-1.13-1.47-1.96-1.94-.83-.46-1.72-.68-2.67-.67zm0 8.45c-.55 0-1.06-.16-1.54-.45-.47-.3-.84-.68-1.1-1.17-.25-.5-.36-1-.34-1.57 0-.84.3-1.54.88-2.13.57-.58 1.3-.87 2.1-.87.84 0 1.58.3 2.15.87.57.6.87 1.3.87 2.12.02.55-.1 1.07-.35 1.57-.25.5-.62.88-1.1 1.17-.5.3-1 .45-1.57.45zM365.32-290.57c-1.45 0-2.7.53-3.72 1.56-1.04 1.02-1.55 2.26-1.55 3.7 0 1.47.53 2.7 1.57 3.73 1.03 1.03 2.28 1.54 3.73 1.54 1.44 0 2.7-.52 3.72-1.55 1.04-1.02 1.54-2.27 1.54-3.72.03-.95-.2-1.83-.68-2.66-.48-.82-1.1-1.47-1.93-1.93-.84-.46-1.74-.68-2.68-.67zm0 8.45c-.55 0-1.08-.16-1.56-.45-.5-.3-.83-.68-1.08-1.17-.26-.5-.4-1-.37-1.57 0-.84.33-1.54.9-2.13.58-.58 1.3-.87 2.12-.87.83 0 1.54.3 2.12.87.57.6.87 1.3.87 2.12.03.55-.08 1.07-.33 1.57-.26.5-.62.88-1.1 1.17-.5.3-1 .45-1.55.45zM379.5-290.25v.86h-.08c-.37-.38-.78-.67-1.26-.88-.5-.2-1-.3-1.52-.3-1.4.08-2.62.62-3.6 1.63-.96 1.02-1.46 2.24-1.46 3.65 0 1.4.5 2.62 1.47 3.64s2.2 1.56 3.6 1.62c.52 0 1.02-.08 1.5-.3.5-.2.93-.5 1.27-.9h.07v.76c0 2-1.1 3.1-2.84 3.1-.57-.03-1.1-.2-1.6-.55-.47-.34-.8-.78-1.02-1.32l-2 .83c.4.95 1 1.7 1.86 2.28.85.57 1.8.85 2.83.84 2.7 0 5-1.6 5-5.5v-9.45h-2.22zm-2.68 8.14c-.55-.02-1.06-.17-1.52-.46-.46-.3-.82-.68-1.08-1.16-.25-.5-.34-1-.32-1.56-.02-.55.07-1.07.32-1.56.26-.5.62-.9 1.08-1.18.46-.3.97-.45 1.52-.47.55.04 1.04.2 1.5.5.46.3.8.7 1.03 1.18.23.5.35 1 .3 1.54.02.54-.07 1.04-.3 1.52-.23.48-.6.87-1.03 1.16-.44.3-.97.46-1.5.5zM383.3-295.82h2.3v15.47h-2.3zM391.96-282.1c-.56.02-1.06-.12-1.52-.4-.46-.3-.8-.7-1.04-1.2l7.06-2.92-.25-.6c-.3-.97-.9-1.77-1.7-2.38-.84-.62-1.76-.94-2.8-.97-.92 0-1.8.24-2.6.72-.8.47-1.4 1.12-1.84 1.94-.43.8-.62 1.68-.57 2.6-.03.94.2 1.83.66 2.65.46.82 1.1 1.47 1.93 1.94.82.46 1.7.68 2.63.67.88 0 1.73-.2 2.5-.62.8-.4 1.4-.98 1.9-1.72l-1.8-1.2c-.27.46-.64.8-1.1 1.07-.46.26-.94.4-1.47.4zm-.2-6.43c.43-.04.82.04 1.2.24.35.22.63.5.8.9l-4.7 1.98c-.05-.52.04-1.02.27-1.5.23-.46.56-.84 1-1.13.43-.3.9-.45 1.44-.48zM401.04-287.5c-.02-1.33.28-2.6.94-3.75.67-1.17 1.57-2.08 2.74-2.75 1.17-.66 2.42-.98 3.75-.96 1-.02 1.98.18 2.9.6.92.4 1.7.98 2.37 1.74l-1.3 1.24c-.47-.6-1.07-1.07-1.8-1.4-.7-.3-1.4-.46-2.2-.42-1-.02-1.97.22-2.84.73-.88.5-1.57 1.22-2.05 2.1-.5.9-.72 1.86-.67 2.88-.05 1 .2 1.96.7 2.84.47.9 1.14 1.58 2.02 2.1.87.5 1.8.74 2.82.72.85 0 1.66-.17 2.42-.52.76-.34 1.43-.84 1.98-1.47l1.3 1.27c-1.05 1.16-2.3 1.93-3.8 2.3-1.53.37-3 .28-4.45-.26-1.45-.55-2.64-1.46-3.52-2.74-.87-1.27-1.3-2.68-1.3-4.23zM415.55-280.35v-14.3h1.84v14.3zM428.82-285.24c0 1.4-.48 2.57-1.47 3.55-1 1-2.18 1.48-3.56 1.48-1.4 0-2.56-.5-3.55-1.47-1-.97-1.48-2.15-1.48-3.54 0-1.4.5-2.57 1.48-3.55 1-.97 2.16-1.46 3.54-1.46 1.37 0 2.56.5 3.55 1.47 1 1 1.47 2.17 1.47 3.56zm-1.83 0c.05-.73-.13-1.4-.52-2-.4-.62-.97-1.04-1.66-1.28-.7-.24-1.38-.24-2.07 0-.7.24-1.24.66-1.63 1.27-.4.6-.6 1.28-.53 2 0 .9.3 1.65.93 2.28.63.63 1.38.94 2.28.94.9 0 1.67-.3 2.3-.94.6-.63.93-1.38.93-2.27zM437.13-280.35v-1.36H437c-.33.5-.77.92-1.32 1.22-.55.3-1.15.45-1.77.45-2.52 0-3.72-1.7-3.72-4.1v-6h1.84v5.7c0 1.98 1 2.72 2.42 2.72.76-.07 1.4-.4 1.9-.98s.72-1.26.67-2.02v-5.4h1.85v9.78h-1.75zM440.37-285.24c-.07-1.35.37-2.53 1.27-3.55.9-1 2.02-1.55 3.38-1.65.66-.02 1.3.12 1.88.42.6.3 1.08.72 1.45 1.26h.07l-.07-1.36v-4.5h1.84v14.28h-1.78v-1.36h-.07c-.37.53-.85.96-1.45 1.25-.6.3-1.22.44-1.88.42-1.36-.1-2.5-.65-3.38-1.66-.9-1-1.34-2.2-1.27-3.54zm8.07 0c.1-.73-.06-1.4-.46-2.02-.4-.62-.92-1.05-1.6-1.3-.7-.23-1.4-.23-2.08 0-.7.25-1.24.68-1.63 1.3-.4.62-.55 1.3-.46 2.02-.08.73.08 1.4.47 2.02.4.62.94 1.05 1.63 1.3.7.23 1.38.23 2.07 0 .7-.25 1.22-.68 1.6-1.3.4-.62.57-1.3.47-2.02zM455.23-280.35v-14.3h4.88c.8 0 1.52.16 2.2.53.7.38 1.23.9 1.65 1.56.4.67.6 1.4.62 2.17-.03.8-.2 1.52-.62 2.18-.42.67-.95 1.2-1.64 1.56-.68.38-1.4.55-2.2.52h-3v5.8h-1.85zm4.9-7.54c.7 0 1.3-.24 1.77-.72.48-.5.74-1.08.74-1.77 0-.67-.26-1.26-.74-1.75-.48-.5-1.08-.73-1.77-.73H457v5h3.08zM465.86-280.35v-14.3h1.83v14.3zM469.28-283.3c0-2.22 2-3.42 4.3-3.42.95-.02 1.84.18 2.67.6v-.28c-.05-.58-.25-1.1-.64-1.53-.38-.44-.84-.72-1.42-.84-.57-.1-1.13-.04-1.66.2-.52.27-.9.65-1.17 1.18l-1.68-.7c.46-.9 1.15-1.56 2.05-1.98.9-.42 1.84-.52 2.83-.3 1 .2 1.8.7 2.44 1.47.63.76.95 1.64 1 2.64v5.9h-1.75v-1.35h-.1c-.34.53-.8.96-1.37 1.25-.58.3-1.2.44-1.84.42-.62.06-1.2-.05-1.77-.33-.58-.28-1-.68-1.36-1.2-.33-.54-.52-1.12-.52-1.74zm7-1.26c-.72-.47-1.48-.68-2.33-.64-1.93 0-2.7 1-2.7 1.94.06.48.3.88.68 1.18.4.3.82.42 1.3.37.8 0 1.5-.28 2.08-.83.58-.56.9-1.23.95-2.03zM480.64-283.32v-5.13h-1.72v-1.68h1.72v-3h1.84v3h2.4v1.68h-2.4v5c0 1.08.5 1.58 1.34 1.58.3 0 .55-.04.83-.16l.64 1.58c-.5.2-.98.28-1.48.26-.58.08-1.13-.02-1.66-.3-.53-.26-.92-.66-1.2-1.18-.27-.5-.38-1.06-.32-1.64zM492.6-294.46l-.62 1.58c-.27-.12-.53-.18-.83-.16-.3-.02-.57.04-.85.2-.27.13-.48.34-.62.6-.13.28-.18.57-.16.88v1.23h2.46v1.68h-2.55v8.1h-1.84v-8.1h-1.85v-1.68h1.84v-1.3c-.03-.6.1-1.18.43-1.72.32-.53.76-.94 1.3-1.22.56-.28 1.13-.4 1.76-.35.5-.02 1.02.06 1.5.26zM502.6-285.24c0 1.4-.47 2.57-1.46 3.55-1 1-2.2 1.48-3.57 1.48-1.38 0-2.57-.5-3.56-1.47-.98-.97-1.46-2.15-1.46-3.54 0-1.4.48-2.57 1.47-3.55 1-.97 2.2-1.46 3.57-1.46 1.38 0 2.58.5 3.57 1.47 1 1 1.47 2.17 1.47 3.56zm-1.83 0c.07-.73-.12-1.4-.5-2-.4-.62-.97-1.04-1.66-1.28-.68-.24-1.37-.24-2.06 0-.7.24-1.27.66-1.66 1.27-.4.6-.57 1.28-.5 2-.07.74.1 1.4.5 2.02.4.6.97 1.04 1.66 1.27.7.24 1.38.24 2.07 0 .7-.23 1.27-.66 1.66-1.27.4-.6.58-1.28.5-2zM504.08-280.35v-9.78h1.77v1.6h.07c.25-.55.67-1 1.17-1.32.5-.33 1.07-.5 1.67-.52.5 0 .95.06 1.38.24l-.7 1.72c-.33-.12-.65-.17-1-.15-.48.02-.92.16-1.33.43-.42.26-.74.6-.95 1.04-.2.44-.32.9-.27 1.38v5.35zM511.14-290.13h1.75v1.36h.08c.35-.5.78-.9 1.3-1.2.54-.3 1.12-.45 1.72-.48.66-.05 1.26.1 1.84.44.57.34.98.82 1.24 1.43.37-.6.87-1.05 1.47-1.38.6-.34 1.26-.5 1.95-.5 2.4 0 3.5 1.7 3.5 4.1v6h-1.84v-5.7c0-2-.78-2.72-2.18-2.72-1.4 0-2.5 1.5-2.5 3v5.4h-1.83v-5.7c0-1.98-.78-2.7-2.18-2.7-1.4 0-2.5 1.5-2.5 3v5.4h-1.85v-9.76z" fill="#737373"/><path d="M314.38-280.34l-2.88 5h-7.52c-.34 0-.64-.1-.94-.26-.3-.17-.53-.4-.7-.7l-6.06-10.6c-.16-.3-.26-.6-.26-.93 0-.33.1-.64.26-.93l2.3-4.05 2.85 4.98 4.32 7.48z" fill="#ffcc40"/><path d="M323.88-286.9l-6.1 10.6c-.16.3-.4.53-.7.7-.3.16-.6.25-.93.25h-4.65l2.88-5 4.32-7.47-4.32-7.5h5.68l3.77 6.57c.16.28.28.6.28.92 0 .33-.06.64-.22.93z" fill="#da4437"/><path d="M320.06-295.3h-14.3l-4.3 7.48-2.88-5 3.77-6.54c.16-.3.4-.52.7-.68.3-.17.6-.25.93-.25h12.17c.34 0 .64.1.94.26.3.16.52.4.68.68z" fill="#4284f3"/><path d="M314.38-295.3l4.32 7.48-4.32 7.48h-8.63l-4.3-7.48 4.3-7.5z" fill="#dfdfdf"/><path d="M306.33-287.82c0-2.07 1.68-3.74 3.75-3.74 2.07 0 3.75 1.67 3.75 3.74 0 2.06-1.68 3.74-3.75 3.74-2.07 0-3.75-1.68-3.75-3.74z" fill="#fff"/><path d="M302.35-299.2c.16-.3.4-.52.7-.68.3-.17.6-.25.93-.25h12.17c.34 0 .64.08.94.25.3.16.52.4.68.68l2.28 3.9-2.28-4.06c-.16-.3-.4-.52-.7-.68-.3-.17-.6-.25-.93-.25h-12.17c-.34 0-.64.1-.94.26-.3.16-.53.4-.7.68l-3.76 6.55v.07z" fill="#fff" fill-opacity=".2"/><path d="M301.45-287.82l4.3-7.5h14.35l-.06-.14h-14.3l-4.3 7.48" fill="#1a237e" fill-opacity=".2"/><path d="M296.28-288.6l2.3-4 2.87 5 4.3 7.48h8.56l.08-.16h-8.63l-4.3-7.54-2.87-5-2.33 4c-.18.3-.25.64-.23 1 .03-.28.12-.54.26-.78z" fill="#fff" fill-opacity=".2"/><path d="M311.6-275.5h-7.62c-.34 0-.64-.1-.94-.26-.3-.17-.53-.4-.7-.7l-6.06-10.6c-.14-.25-.23-.53-.26-.83-.02.36.07.7.26 1l6.07 10.6c.16.3.4.53.7.7.3.16.6.25.93.25h7.52z" fill="#be360c"/><path d="M318.8-287.82l-4.33-7.5h-.1l4.33 7.5zM323.88-287.05l-6.1 10.6c-.16.3-.4.52-.7.7-.3.15-.6.24-.93.24h-4.56l-.1.15h4.65c.34 0 .64-.1.94-.25.3-.17.52-.4.68-.7l6.1-10.6c.18-.3.25-.63.23-.98-.02.3-.1.57-.22.83z" fill="#3e2723"/><path d="M320.06-295.15l3.77 6.56c.14.27.23.55.25.86.03-.36-.07-.7-.25-1l-3.77-6.57h-5.68l.1.15M314.38-280.18l4.4-7.64h-.08l-4.32 7.48-2.88 5h.1z" fill="#fff"/><path d="M323.88-288.75l-3.82-6.56-2.28-4.06c-.16-.3-.4-.52-.7-.68-.3-.17-.6-.25-.93-.25h-12.17c-.34 0-.64.1-.94.26-.3.16-.53.4-.7.68l-6.06 10.6c-.16.3-.26.6-.26.94 0 .33.1.64.26.93l6.07 10.6c.16.3.4.53.7.7.3.16.6.25.93.25h12.17c.34 0 .64-.1.94-.25.3-.17.52-.4.68-.7l6.1-10.6c.16-.28.25-.6.25-.92 0-.33-.1-.64-.25-.93z" fill="url(#a)"/><path d="M340-122.23a2 2 0 0 1 2-2h1083.54a2 2 0 0 1 2 2v730.16a2 2 0 0 1-2 2H342a2 2 0 0 1-2-2z" fill="#dff2ea"/><use xlink:href="#b" transform="matrix(1,0,0,1,356,-108.22766118459322) translate(0 20.616319444444443)"/><use xlink:href="#c" transform="matrix(1,0,0,1,356,-108.22766118459322) translate(79.13411458333331 20.616319444444443)"/><path d="M279.42-314.3a2 2 0 0 1 2-2h356a2 2 0 0 1 2 2v96.12a2 2 0 0 1-2 2h-356a2 2 0 0 1-2-2z" fill="#fff"/><use xlink:href="#d" transform="matrix(1,0,0,1,295.423331850443,-300.2939188148057) translate(0 28.862847222222225)"/><use xlink:href="#e" transform="matrix(1,0,0,1,295.423331850443,-300.2939188148057) translate(106.76041666666666 65.32118055555556)"/><path d="M1089.8-235.24l14.02 10.12v-49.82l-14 10.06v29.64z" stroke="#000" stroke-opacity="0" fill="#669df6"/><path d="M1089.8-258.33l14.02-8.3v-8.3l-14 16.6zM1103.82-225.12v-8.3l-14-8.3 14 16.6z" stroke="#000" stroke-opacity="0" fill="#4285f4"/><path d="M1117.83-216.82l-28.02-24.9v16.6l18.7 16.6 9.33-8.3zM1108.4-291.55l-18.6 16.58.07 16.64 27.87-24.9-9.33-8.32z" stroke="#000" stroke-opacity="0" fill="#aecbfa"/><path d="M1183.2-264.83l-14-10.1v49.8l14-10.06v-29.63z" stroke="#000" stroke-opacity="0" fill="#669df6"/><path d="M1183.2-241.73l-14 8.3v8.3l14-16.6zM1169.2-274.94v8.3l14 8.3-14-16.6z" stroke="#000" stroke-opacity="0" fill="#4285f4"/><path d="M1155.2-283.24l28 24.9v-16.6l-18.68-16.6-9.33 8.3zM1164.6-208.52l18.6-16.57-.04-16.63-27.87 24.9 9.3 8.3zM1122.5-250.03c0 2.3-2.1 4.15-4.67 4.15s-4.67-1.86-4.67-4.15c0-2.3 2.1-4.15 4.67-4.15 2.58 0 4.67 1.86 4.67 4.15zM1141.18-250.03c0 2.3-2.1 4.15-4.67 4.15s-4.66-1.86-4.66-4.15c0-2.3 2.1-4.15 4.67-4.15 2.6 0 4.68 1.86 4.68 4.15zM1159.77-250.03c0 2.3-2.1 4.15-4.67 4.15-2.58 0-4.67-1.86-4.67-4.15 0-2.3 2.1-4.15 4.67-4.15 2.58 0 4.67 1.86 4.67 4.15z" stroke="#000" stroke-opacity="0" fill="#aecbfa"/><path d="M1103.82-287.4v74.73h65.38v-74.72z" stroke="#000" stroke-opacity="0" fill-opacity="0"/><use xlink:href="#f" transform="matrix(1,0,0,1,1059.813852731289,-199.51742177831187) translate(38.640625 25.833333333333336)"/><use xlink:href="#g" transform="matrix(1,0,0,1,1059.813852731289,-199.51742177831187) translate(12.735677083333329 58.098958333333336)"/><path d="M983.7-215.32c-1.13 0-2.1-.4-2.9-1.2l-8.24-8.23c-1.48-1.73-1.28-4.32.45-5.8 1.57-1.35 3.82-1.35 5.37 0l8.24 8.23c1.62 1.6 1.62 4.2 0 5.8-.8.8-1.78 1.2-2.9 1.2zM917.64-215.32c-2.28 0-4.13-1.87-4.12-4.15 0-1.14.42-2.1 1.23-2.9l8.25-8.26c1.6-1.62 4.22-1.64 5.84-.04l.02.04c1.6 1.6 1.6 4.2 0 5.82l-8.25 8.24c-.8.83-1.8 1.24-2.96 1.24z" stroke="#000" stroke-opacity="0" fill="#669df6"/><path d="M923.7-231.26l-5.02 5.05c1.87 2.23 3.6 3.97 5.86 5.83l5.03-5.05zM982.56-226.38l-4.12-4.13c-.3-.27-.6-.47-.95-.66l-5.54 5.52c.2.36.4.64.66.95l4.12 4.13c2.23-1.85 3.97-3.6 5.82-5.8z" stroke="#000" stroke-opacity="0" fill="#4285f4"/><path d="M950.67-215.32c-20.5 0-37.14-16.64-37.14-37.14s16.64-37.14 37.14-37.14 37.14 16.64 37.14 37.14-16.63 37.14-37.13 37.14zm0-8.24c15.97 0 28.9-12.93 28.9-28.9 0-15.97-12.93-28.9-28.9-28.9-15.97 0-28.9 12.93-28.9 28.9 0 15.97 12.93 28.9 28.9 28.9z" stroke="#000" stroke-opacity="0" fill="#669df6"/><path d="M950.64-231.76c11.38 0 20.63-9.25 20.63-20.65 0-11.4-9.25-20.66-20.63-20.66v20.65l-16.8 12c4 5.63 9.9 8.64 16.8 8.64z" stroke="#000" stroke-opacity="0" fill="#4285f4"/><path d="M917.68-276.92c-2.28 0-4.14-1.82-4.15-4.1 0-1.16.4-2.16 1.22-2.97l8.25-8.24c1.6-1.62 4.22-1.64 5.84-.03 0 0 .02 0 .02.03 1.6 1.6 1.6 4.2 0 5.82l-8.25 8.25c-.8.83-1.78 1.25-2.92 1.25zM983.66-276.92c-1.14 0-2.13-.42-2.93-1.25l-8.25-8.25c-1.6-1.62-1.6-4.22 0-5.82 1.6-1.62 4.22-1.64 5.84-.03v.03l8.27 8.25c1.6 1.62 1.63 4.23.02 5.85-.83.83-1.8 1.23-2.96 1.23z" stroke="#000" stroke-opacity="0" fill="#aecbfa"/><path d="M950.67-292.08c19.13 0 34.67 15.53 34.67 34.67 0 19.12-15.54 34.65-34.67 34.65-19.14 0-34.67-15.53-34.67-34.66 0-19.15 15.53-34.68 34.67-34.68z" fill-opacity="0"/><use xlink:href="#f" transform="matrix(1,0,0,1,871.1442624542883,-193.93478093730835) translate(41.640625 25.833333333333336)"/><use xlink:href="#h" transform="matrix(1,0,0,1,871.1442624542883,-193.93478093730835) translate(13.489583333333314 58.098958333333336)"/><path d="M400-58.47a2 2 0 0 1 2-2h595.86a2 2 0 0 1 2 2V562.4a2 2 0 0 1-2 2H402a2 2 0 0 1-2-2z" fill="#e3f2fd"/><use xlink:href="#i" transform="matrix(1,0,0,1,416,-44.47047016300985) translate(0 20.822482638888886)"/><use xlink:href="#j" transform="matrix(1,0,0,1,416,-44.47047016300985) translate(78.51171874999999 20.822482638888886)"/><path d="M435.5 197.75a2 2 0 0 1 2-2H751.8a2 2 0 0 1 2 2v186.63a2 2 0 0 1-2 2H437.5a2 2 0 0 1-2-2z" fill="#fff"/><path d="M533.84 277.15h7v14.08h-7v-14.08zM509.23 277.15h7.02v14.08h-7.02v-14.08zM484.7 277.15h7.02v14.08h-7.02v-14.08z" stroke="#000" stroke-opacity="0" fill="#669df6"/><path d="M516.25 273.7h-7.02v-14.08h7.02v14.08z" stroke="#000" stroke-opacity="0" fill="#4285f4"/><path d="M484.7 273.6h56.2v7.03h-56.2v-7.02z" stroke="#000" stroke-opacity="0" fill="#669df6"/><path d="M491.7 242.04h42.14v17.53H491.7v-17.53z" stroke="#000" stroke-opacity="0" fill="#aecbfa"/><path d="M512.77 242.04h21.07v17.53h-21.07v-17.53z" stroke="#000" stroke-opacity="0" fill="#669df6"/><path d="M526.84 291.23h21.07v21.06h-21.06v-21.07zM477.65 291.23h21.07v21.06h-21.07v-21.07z" stroke="#000" stroke-opacity="0" fill="#aecbfa"/><path d="M488.16 291.23h10.53v21.06h-10.54v-21.07z" stroke="#000" stroke-opacity="0" fill="#669df6"/><path d="M502.23 291.23h21.07v21.06h-21.07v-21.07z" stroke="#000" stroke-opacity="0" fill="#aecbfa"/><path d="M512.77 291.23h10.53v21.06h-10.53v-21.07zM537.37 291.23h10.54v21.06h-10.53v-21.07z" stroke="#000" stroke-opacity="0" fill="#669df6"/><path d="M489.6 242.6v69.1h46.34v-69.1z" stroke="#000" stroke-opacity="0" fill-opacity="0"/><path d="M578.64 236.57a6 6 0 0 1 6-6h136.5a6 6 0 0 1 6 6v78.5a6 6 0 0 1-6 6h-136.5a6 6 0 0 1-6-6z" fill="none"/><use xlink:href="#k" transform="matrix(1,0,0,1,578.6370402072473,230.56590919011205) translate(14.435980902777779 37.450954861111114)"/><use xlink:href="#l" transform="matrix(1,0,0,1,578.6370402072473,230.56590919011205) translate(82.37217881944446 37.450954861111114)"/><use xlink:href="#m" transform="matrix(1,0,0,1,578.6370402072473,230.56590919011205) translate(23.078559027777786 69.71657986111111)"/><path d="M879.94 128.27a6 6 0 0 1 6-6h228a6 6 0 0 1 6 6v48a6 6 0 0 1-6 6h-228a6 6 0 0 1-6-6z" fill="none"/><use xlink:href="#n" transform="matrix(1,0,0,1,879.9399799041482,122.27074742017885) translate(39.81879340277777 38.083767361111114)"/><use xlink:href="#o" transform="matrix(1,0,0,1,879.9399799041482,122.27074742017885) translate(135.53276909722223 38.083767361111114)"/><path d="M1399.2 298.97l-26.38-45.28c-2.04-3.66-5.88-5.82-9.85-5.82h-52.48c-4.23 0-7.95 2.4-9.87 5.8l-26.37 45.18c-2.04 3.64-2.04 7.74 0 11.38l26.37 45.4c2.05 3.64 5.9 6.03 9.86 6.03h52.47c4.22 0 7.93-2.62 9.86-6.03l26.36-45.3c2.04-3.63 2.04-7.72 0-11.37z" stroke="#000" stroke-opacity="0" stroke-width=".29" fill="#4285f4"/><path d="M1367.07 304.78l-7.68.1-25.87-25.6 2.43 6.5 5 13.54-12.04-11.84.77 3.76-5.77-5.7-6.53 1.14-1.4 6.72 10.5 10.47-5.77 1.7-4.74-4.66-6.66 1.5-1.28 6.25 9.2 9.1L1316 324l38 37.67h8.97c4.22 0 7.93-2.62 9.86-6.03l16.63-28.56z" stroke="#000" stroke-opacity="0" stroke-width=".29" fill-opacity=".07"/><path d="M1312.03 299.2c-3.08 0-5.64 2.5-5.64 5.58 0 3.07 2.55 5.57 5.63 5.57 3.07 0 5.63-2.5 5.63-5.57 0-3.07-2.56-5.58-5.63-5.58zm0 7.17c-.9 0-1.54-.68-1.54-1.6 0-.9.63-1.6 1.53-1.6s1.66.7 1.66 1.6c0 .92-.78 1.6-1.67 1.6zM1319.96 314.45c-3.07 0-5.63 2.5-5.63 5.57 0 3.08 2.56 5.58 5.63 5.58s5.63-2.5 5.63-5.58c0-3.07-2.57-5.46-5.64-5.57zm0 7.17c-.9 0-1.66-.68-1.66-1.6 0-.9.77-1.6 1.66-1.6.9 0 1.54.7 1.54 1.6 0 .92-.64 1.6-1.54 1.6zM1319.96 283.95c-3.07 0-5.63 2.5-5.63 5.58 0 3.07 2.56 5.58 5.63 5.58s5.63-2.5 5.63-5.57c0-3.07-2.57-5.58-5.64-5.58zm0 7.17c-.9 0-1.66-.68-1.66-1.6 0-.9.77-1.58 1.66-1.58.9 0 1.54.68 1.54 1.6 0 .9-.64 1.58-1.54 1.58zM1357.34 312.06V297.5l9.73 7.28-9.73 7.28z" stroke="#000" stroke-opacity="0" stroke-width=".29" fill="#fff"/><path d="M1348.38 302.84v3.87h9.2v-3.86zM1335.45 304.78c0-.68 0-1.37-.13-1.94h-19.7v3.87h19.7c.13-.56.13-1.24.13-1.92zM1330.07 320.6c.64-.8 1.15-1.6 1.67-2.5h-8.2v3.97h5.38c.38-.45.77-.9 1.15-1.48z" stroke="#000" stroke-opacity="0" stroke-width=".29" fill="#fff"/><path d="M1329.43 275.88l-2.8 4.1c.1 0 12.8 8.75 12.8 24.8 0 16.16-12.7 24.8-12.8 24.92l2.8 3.98c.64-.34 14.98-10.24 14.98-28.9 0-18.66-14.33-28.56-14.97-28.9z" stroke="#000" stroke-opacity="0" stroke-width=".29" fill="#fff"/><path d="M1330.07 288.96c-.38-.57-.76-1.02-1.15-1.48h-5.38v3.98h8.2c-.52-.9-1.03-1.7-1.67-2.5z" stroke="#000" stroke-opacity="0" stroke-width=".29" fill="#fff"/><use xlink:href="#p" transform="matrix(1,0,0,1,1242.7294748763022,370.67237873345675) translate(37.766276041666664 21.52777777777778)"/><use xlink:href="#q" transform="matrix(1,0,0,1,1242.7294748763022,370.67237873345675) translate(105.70247395833334 21.52777777777778)"/><path d="M826.72-283.64v67.46h-22.35c-.57 0-1.13-.47-1.13-1.08v-6.4c0-.62.56-1.1 1.13-1.1h13.88v-50.3h-13.88c-.57 0-1.13-.48-1.13-1.1v-6.4c0-.6.56-1.08 1.13-1.08h22.35zm-88.6 0c.67 0 1.13.47 1.13 1.08v6.4c0 .62-.46 1.1-1.13 1.1h-15.8v50.3h15.8c.56 0 1 .48 1 1.1v6.4c0 .6-.44 1.08-1 1.08h-24.27v-67.46h24.27zm62.75 21.93v8.28l.34.14 7.68-2.7 1.58 4.65-7.67 2.64-.24.54 5.3 7.16-3.94 2.9-5.2-7.16h-.45l-5.2 7.16-3.94-2.9 5.2-7.16-.12-.53-7.66-2.63 1.58-4.65 7.56 2.7.34-.14v-8.3h4.85zm-57.67 0v8.22l.33.13 7.57-2.7 1.58 4.6-7.68 2.62-.22.54 5.3 7.1-3.95 2.9-5.2-7.1h-.44l-5.2 7.1-3.95-2.9 5.2-7.1-.13-.53-7.67-2.63 1.58-4.6 7.56 2.7.44-.12v-8.23h4.86zm28.78 0v8.22l.34.13 7.56-2.7 1.58 4.6-7.68 2.62-.22.54 5.3 7.1-3.95 2.9-5.18-7.1h-.45l-5.2 7.1-3.94-2.9 5.2-7.1-.13-.53-7.67-2.63 1.58-4.6 7.57 2.7.34-.12v-8.23H772z" stroke="#000" stroke-opacity="0" fill="#4285f4"/><path d="M714.98-282.96v66.1h110.6v-66.1z" stroke="#000" stroke-opacity="0" fill-opacity="0"/><use xlink:href="#r" transform="matrix(1,0,0,1,683.8502780153714,-207.18141759550903) translate(44.05208333333333 25.833333333333336)"/><use xlink:href="#s" transform="matrix(1,0,0,1,683.8502780153714,-207.18141759550903) translate(28.498697916666664 58.098958333333336)"/><path d="M1013.93-57.37a2 2 0 0 1 2-2h220.7a2 2 0 0 1 2 2V563.5a2 2 0 0 1-2 2h-220.7a2 2 0 0 1-2-2z" fill="#e3f2fd"/><use xlink:href="#t" transform="matrix(1,0,0,1,1029.9347891359582,-43.367242892281865) translate(72 20.822482638888886)"/><use xlink:href="#j" transform="matrix(1,0,0,1,1029.9347891359582,-43.367242892281865) translate(136.74696180555554 20.822482638888886)"/><path d="M854.07-12.77a2 2 0 0 1 2-2h314.27a2 2 0 0 1 2 2V217.3a2 2 0 0 1-2 2H856.07a2 2 0 0 1-2-2z" fill="#fff"/><use xlink:href="#u" transform="matrix(1,0,0,1,870.0660400991227,1.230335982228553) translate(0 20.616319444444443)"/><use xlink:href="#v" transform="matrix(1,0,0,1,870.0660400991227,1.230335982228553) translate(60.666232638888886 20.616319444444443)"/><path d="M1018.57 55l4.67 1.94 3.98 3.1 3.1 4.06 1.93 4.6.7 5.06V97.3l-.7 5-1.86 4.67-3.12 4.05-4.04 3.05-4.6 1.94-5.04.7h-23.5l-4.98-.7-4.66-1.86-4.05-3.12-3.03-4.05-1.93-4.6-.68-5.06V73.77l.62-4.98 1.93-4.62 3.12-4.05 4.04-3.1 4.6-1.93 5.04-.7h23.5zm-3.23 8.98l-1.5.68-.62 1.5.63 1.56 1.5.62h3.72V72l.62 1.5 1.48.7 1.56-.7.62-1.48v-5.86l-.68-1.5-1.5-.68zm-32.83 0l-1.55.68-.62 1.5v5.86l.62 1.5 1.56.68 1.5-.7.62-1.48v-3.68h3.73l1.5-.62.62-1.56-.62-1.5-1.5-.68z" stroke="#000" stroke-opacity="0" fill="#236bf5"/><path d="M988.3 76h27.1v19.06h-27.1z" fill="none"/><use xlink:href="#w" transform="matrix(1,0,0,1,988.306591824722,76.01213013932465) translate(-5.235677083333329 25.51041666666666)"/><path d="M855.06 258.58a2 2 0 0 1 2-2h314.27a2 2 0 0 1 2 2v230.06a2 2 0 0 1-2 2H857.06a2 2 0 0 1-2-2z" fill="#fff"/><use xlink:href="#u" transform="matrix(1,0,0,1,871.0573401442274,272.5801388244199) translate(0 20.616319444444443)"/><use xlink:href="#x" transform="matrix(1,0,0,1,871.0573401442274,272.5801388244199) translate(60.666232638888886 20.616319444444443)"/><path d="M1021.37 320.93l4.67 1.93 3.98 3.1 3.1 4.06 1.93 4.6.7 5.06v23.55l-.7 5-1.86 4.66-3.12 4.04-4.04 3.06-4.6 1.93-5.04.68h-23.5l-4.98-.67-4.66-1.87-4.04-3.12-3.05-4.05-1.93-4.62-.68-5.05v-23.55l.62-5 1.93-4.6 3.12-4.05 4.04-3.1 4.6-1.94 5.04-.7h23.5zm-3.23 8.97l-1.5.68-.6 1.5.6 1.56 1.5.62h3.73v3.68l.62 1.5 1.5.68 1.54-.7.62-1.5v-5.84l-.68-1.5-1.5-.68zm-32.83 0l-1.54.68-.63 1.5v5.86l.63 1.5 1.55.68 1.5-.7.62-1.5v-3.66h3.74l1.5-.62.6-1.56-.6-1.5-1.5-.68z" stroke="#000" stroke-opacity="0" fill="#236bf5"/><path d="M991.1 341.93h27.1v19.05h-27.1z" fill="none"/><use xlink:href="#w" transform="matrix(1,0,0,1,991.1076393850775,341.93269043576174) translate(-5.235677083333329 25.51041666666666)"/><path d="M878.12 426.76a6 6 0 0 1 6-6h228a6 6 0 0 1 6 6v48a6 6 0 0 1-6 6h-228a6 6 0 0 1-6-6z" fill="none"/><use xlink:href="#n" transform="matrix(1,0,0,1,878.1171795231453,420.76174411548436) translate(39.81879340277777 38.083767361111114)"/><use xlink:href="#o" transform="matrix(1,0,0,1,878.1171795231453,420.76174411548436) translate(135.53276909722223 38.083767361111114)"/><path d="M1021.6 356l4.65 1.93 3.98 3.1 3.1 4.06 1.94 4.6.68 5.05v23.56l-.68 5-1.87 4.66-3.1 4.05-4.05 3.07-4.6 1.93-5.04.68h-23.5l-4.97-.68-4.66-1.87-4.04-3.12-3.05-4.04-1.92-4.6-.7-5.06v-23.55l.63-4.98 1.92-4.6 3.1-4.06 4.05-3.1 4.6-1.94 5.04-.7h23.5zm-3.25 8.97l-1.5.68-.6 1.5.6 1.56 1.5.63h3.74V373l.6 1.5 1.5.7 1.55-.7.63-1.5v-5.85l-.7-1.5-1.48-.68zm-32.83 0l-1.55.68-.62 1.5V373l.62 1.5 1.55.7 1.5-.7.62-1.5v-3.67h3.73l1.5-.62.6-1.55-.6-1.5-1.5-.68z" stroke="#000" stroke-opacity="0" fill="#236bf5"/><path d="M991.32 377h27.08v19.05h-27.08z" fill="none"/><use xlink:href="#w" transform="matrix(1,0,0,1,991.3216720032254,377.0048452653782) translate(-5.235677083333329 25.51041666666666)"/><path d="M1019.78 106.3l4.66 1.92 3.98 3.12 3.1 4.05 1.94 4.6.68 5.05v23.55l-.68 5-1.87 4.66-3.12 4.05-4.04 3.06-4.6 1.93-5.04.68h-23.5l-4.97-.7-4.67-1.85-4.04-3.12-3.05-4.04-1.92-4.6-.7-5.06v-23.55l.63-5 1.93-4.6 3.12-4.05 4.04-3.1 4.6-1.94 5.04-.7h23.5zm-3.24 8.97l-1.5.68-.6 1.5.6 1.55 1.5.63h3.74v3.67l.62 1.5 1.5.68 1.54-.68.63-1.5v-5.85l-.7-1.5-1.48-.7zm-32.83 0l-1.54.68-.62 1.5v5.85l.62 1.5 1.55.68 1.5-.68.63-1.5v-3.67h3.73l1.5-.63.6-1.55-.6-1.5-1.5-.7z" stroke="#000" stroke-opacity="0" fill="#236bf5"/><path d="M989.5 127.3h27.1v19.05h-27.1z" fill="none"/><g><use xlink:href="#w" transform="matrix(1,0,0,1,989.5122197159541,127.30042962189827) translate(-5.235677083333329 25.51041666666666)"/></g><path d="M890.3 163.5a6 6 0 0 1 6-6h228a6 6 0 0 1 6 6v48a6 6 0 0 1-6 6h-228a6 6 0 0 1-6-6z" fill="none"/><g><use xlink:href="#n" transform="matrix(1,0,0,1,890.2899443555139,157.48908762348174) translate(39.81879340277777 38.083767361111114)"/><use xlink:href="#o" transform="matrix(1,0,0,1,890.2899443555139,157.48908762348174) translate(135.53276909722223 38.083767361111114)"/></g><path d="M1255.26 304.78H1139.9a6 6 0 0 1-6-6V143.63a6 6 0 0 0-6-6H863.4a6 6 0 0 0-6 6v127.52a6 6 0 0 1-6 6h-309" stroke="#3a414a" stroke-width="3" fill="none"/><path d="M1269.74 304.78l-12.98 7.5v-15z" stroke="#3a414a" stroke-width="3" fill="#3a414a"/><path d="M542.45 278.63h-1.54v-2.95h1.55z" stroke="#3a414a" stroke-width=".05" fill="#3a414a"/><path d="M1140.58 304.78h-.7a6 6 0 0 0-6 6v61.5a6 6 0 0 1-6 6H863.4a6 6 0 0 1-6-6v-89.13a6 6 0 0 0-6-6H557.67M1140.54 304.78h1.54M557.7 277.15h-1.53" stroke="#3a414a" stroke-width="3" fill="none"/><path d="M1218.25 46.4a6 6 0 0 1 6-6h228a6 6 0 0 1 6 6v48a6 6 0 0 1-6 6h-228a6 6 0 0 1-6-6z" fill="none"/><g><use xlink:href="#y" transform="matrix(1,0,0,1,1218.2520306606584,40.38609716635551) translate(98.68923611111111 21.52777777777778)"/><use xlink:href="#z" transform="matrix(1,0,0,1,1218.2520306606584,40.38609716635551) translate(93.291015625 53.79340277777778)"/><use xlink:href="#A" transform="matrix(1,0,0,1,1218.2520306606584,40.38609716635551) translate(87.98502604166667 86.05902777777777)"/></g><defs><radialGradient gradientUnits="userSpaceOnUse" id="a" fx="-139232" fy="258302.86" cx="140992" cy="-257970.2" r="12984"><stop offset="0%" stop-color="#fff" stop-opacity=".1"/><stop offset="100%" stop-color="#fff" stop-opacity="0"/></radialGradient><path fill="#333" d="M1161-1018c0 201-122 330-278 388l342 618V0h-206L703-589H361V0H168v-1456h482c310-2 511 139 511 438zm-193 0c0-187-120-280-313-280H361v552h295c179 3 313-101 312-272" id="B"/><path fill="#333" d="M599-131c141 0 220-65 285-146l113 88C906-50 770 20 589 20 281 21 93-214 93-545c0-223 93-397 233-485 74-48 154-72 240-72 300 2 449 218 445 537v77H278c0 197 129 357 321 357zm227-509c-3-180-88-310-260-310-170 0-264 140-282 310h542" id="C"/><path fill="#333" d="M521 20C240 20 96-239 96-550c0-303 147-552 427-552 132 0 235 47 309 140l9-120h169V-26c4 277-183 454-459 452-165-1-334-81-400-187l96-111c79 98 176 147 291 147 180 1 288-109 286-290v-93C750-23 649 20 521 20zm48-965c-209 0-287 178-287 416 0 217 86 392 285 392 117 0 202-53 257-159v-494c-57-103-142-155-255-155" id="D"/><path fill="#333" d="M341 0H156v-1082h185V0zm-91-1264c-68 0-108-42-109-105 0-62 41-107 109-107s110 44 110 107-42 105-110 105" id="E"/><path fill="#333" d="M584 20C278 26 81-227 91-551c10-320 175-545 491-551 308-5 503 247 494 573-9 322-175 543-492 549zm-2-970c-208 0-305 185-305 421 0 216 106 398 307 398 211 0 307-186 307-420 0-214-109-399-309-399" id="F"/><path fill="#333" d="M589-945c-131 0-219 81-264 174V0H140v-1082h175l6 136c83-104 191-156 324-156 229 0 346 129 346 387V0H806v-716c-2-153-65-229-217-229" id="G"/><path fill="#333" d="M248 11c-71 0-114-43-114-108 0-67 42-112 114-112s116 45 116 112c-1 65-45 108-116 108zm1-883c-71 0-114-43-114-108 0-67 42-112 114-112s116 45 116 112c-1 65-45 108-116 108" id="H"/><g id="b"><use transform="matrix(0.010850694444444444,0,0,0.010850694444444444,0,0)" xlink:href="#B"/><use transform="matrix(0.010850694444444444,0,0,0.010850694444444444,13.682725694444445,0)" xlink:href="#C"/><use transform="matrix(0.010850694444444444,0,0,0.010850694444444444,25.455729166666664,0)" xlink:href="#D"/><use transform="matrix(0.010850694444444444,0,0,0.010850694444444444,37.92317708333333,0)" xlink:href="#E"/><use transform="matrix(0.010850694444444444,0,0,0.010850694444444444,43.315972222222214,0)" xlink:href="#F"/><use transform="matrix(0.010850694444444444,0,0,0.010850694444444444,55.98958333333333,0)" xlink:href="#G"/><use transform="matrix(0.010850694444444444,0,0,0.010850694444444444,68.25086805555554,0)" xlink:href="#H"/></g><path fill="#333" d="M491 20c-241-1-355-148-355-398v-704h185v699c0 164 67 246 200 246 141 0 235-53 282-158v-787h185V0H812l-4-107C736-22 630 20 491 20" id="I"/><path fill="#333" d="M538-131c121 0 232-49 232-156 0-50-20-88-56-117-73-60-334-92-420-143-92-55-162-110-162-238 0-190 192-317 400-317 223 0 414 129 413 338H759c0-108-110-186-227-186-119 0-215 53-215 159 0 45 18 78 53 101 76 52 331 90 416 139 98 57 169 115 169 251C955-92 760 20 538 20c-176 0-314-68-386-174-38-55-57-115-57-179h185c6 129 116 202 258 202" id="J"/><path fill="#333" d="M525-543H37v-151h488v151" id="K"/><path fill="#333" d="M277-555c0 244 77 420 297 424 127 2 249-93 255-210h175C980-127 805 20 574 20 258 20 81-222 92-562c11-319 164-533 481-540 237-5 426 165 431 392H829c-7-133-115-242-256-240-209 4-296 166-296 395" id="L"/><path fill="#333" d="M456 20C285 20 205-92 206-268v-671H9v-143h197v-262h185v262h202v143H391v671c-9 125 92 149 207 118V0c-49 13-96 20-142 20" id="M"/><path fill="#333" d="M663-916c-163-27-288 18-338 148V0H140v-1082h180l3 125c61-97 147-145 258-145 36 0 63 5 82 14v172" id="N"/><path fill="#333" d="M561-1102c238-4 403 126 403 351v498c0 99 13 178 38 237V0H808c-11-21-19-59-26-114C696-25 593 20 474 20c-199 0-368-130-365-320 4-251 214-359 490-356h180v-85c-1-135-86-212-229-212-115 0-232 67-233 171H131c20-205 206-316 430-320zM294-326c0 117 90 185 207 185 122 0 239-75 278-162v-222H634c-227 0-340 66-340 199" id="O"/><path fill="#333" d="M341 0H156v-1536h185V0" id="P"/><path fill="#333" d="M729 0H543v-1233l-373 137v-168l530-199h29V0" id="Q"/><g id="c"><use transform="matrix(0.010850694444444444,0,0,0.010850694444444444,0,0)" xlink:href="#I"/><use transform="matrix(0.010850694444444444,0,0,0.010850694444444444,12.250434027777777,0)" xlink:href="#J"/><use transform="matrix(0.010850694444444444,0,0,0.010850694444444444,23.708767361111104,0)" xlink:href="#K"/><use transform="matrix(0.010850694444444444,0,0,0.010850694444444444,29.839409722222218,0)" xlink:href="#L"/><use transform="matrix(0.010850694444444444,0,0,0.010850694444444444,41.471354166666664,0)" xlink:href="#C"/><use transform="matrix(0.010850694444444444,0,0,0.010850694444444444,53.244357638888886,0)" xlink:href="#G"/><use transform="matrix(0.010850694444444444,0,0,0.010850694444444444,65.50564236111111,0)" xlink:href="#M"/><use transform="matrix(0.010850694444444444,0,0,0.010850694444444444,72.76475694444444,0)" xlink:href="#N"/><use transform="matrix(0.010850694444444444,0,0,0.010850694444444444,79.85026041666667,0)" xlink:href="#O"/><use transform="matrix(0.010850694444444444,0,0,0.010850694444444444,91.9379340277778,0)" xlink:href="#P"/><use transform="matrix(0.010850694444444444,0,0,0.010850694444444444,97.33072916666666,0)" xlink:href="#Q"/></g><path fill="#333" d="M1245-974c0 302-233 466-552 461H430V0H130v-1456h568c323 5 547 167 547 482zm-303 2c1-143-93-241-237-241H430v457h268c151 1 244-71 244-216" id="R"/><path fill="#333" d="M719-811c-143-24-279 1-319 103V0H111v-1082h273l8 129c74-124 180-175 331-136" id="S"/><path fill="#333" d="M579 20C257 20 58-214 66-551c8-331 182-551 511-551 324 0 514 231 514 572 0 319-198 550-512 550zm-2-888c-169 0-222 141-222 338 0 181 61 317 224 317 170 0 223-137 223-338 0-178-64-317-225-317" id="T"/><path fill="#333" d="M488 20C204 20 66-234 66-549c0-305 140-551 424-553 105 0 192 39 261 118v-552h290V0H780l-14-115C694-25 601 20 488 20zM355-528c0 176 51 314 207 314 89 0 152-38 189-113v-427c-36-75-98-113-187-113-139 0-209 113-209 339" id="U"/><path fill="#333" d="M463 20c-241-1-359-147-359-393v-709h289v699c0 113 51 169 154 169 98 0 165-34 202-102v-766h290V0H767l-8-110C688-23 589 20 463 20" id="V"/><path fill="#333" d="M355-556c-2 203 30 338 206 343 102 3 181-63 182-161h271C1001-128 821 17 566 20 242 24 66-212 66-554c0-320 184-548 498-548 262 0 451 167 450 423H743c-1-108-75-193-184-189-162 6-202 123-204 312" id="W"/><path fill="#333" d="M457-330c2 83 25 111 111 112 32 0 60-2 85-7V-6c-57 17-115 26-175 26-203 0-310-102-310-307v-583H10v-212h158v-266h289v266h185v212H457v540" id="X"/><path fill="#333" d="M416 0H126v-1082h290V0zM271-1212c-92 0-162-61-162-150s68-149 162-149c93 0 162 60 162 149s-70 150-162 150" id="Y"/><path fill="#333" d="M750-692c-1-124-48-174-173-175-81 0-142 35-183 104V0H105v-1082h272l9 125c77-97 181-145 311-145 244 0 342 151 342 403V0H750v-692" id="Z"/><path fill="#333" d="M202 125H-13l536-1581h215" id="aa"/><path fill="#333" d="M1212-428C1211-131 1004 0 696 0H130v-1456h510c318-1 539 108 539 399 0 155-89 264-208 308 141 33 242 151 241 321zM687-241c132 2 225-65 225-190 0-133-69-203-207-203H430v393h257zm192-786c0-145-86-186-239-186H430v367h222c151-3 227-63 227-181" id="ab"/><path fill="#333" d="M1052-393l142-689h279L1197 0H955L750-681 545 0H304L28-1082h279l141 688 198-688h209" id="ac"/><path fill="#333" d="M190-1174c-11-296 244-440 544-363l-3 224c-24-6-53-9-88-9-109 0-163 51-163 153v87h215v212H480V0H190v-870H29v-212h161v-92" id="ad"/><path fill="#333" d="M1031-175C952-60 797 20 609 20 287 20 60-206 72-543c12-330 180-559 505-559 309 0 482 214 477 537v118H365c15 134 115 234 263 234 111 0 198-40 261-121zM770-644c5-139-62-226-194-224-130 1-191 97-208 224h402" id="ae"/><path fill="#333" d="M416 0H126v-1536h290V0" id="af"/><path fill="#333" d="M288 11c-91 0-163-63-163-153 0-91 73-155 163-155 91 0 164 64 164 155S380 11 288 11zm0-819c-91 0-163-63-163-153 0-91 73-155 163-155 91 0 164 64 164 155s-72 153-164 153" id="ag"/><g id="d"><use transform="matrix(0.015190972222222224,0,0,0.015190972222222224,0,0)" xlink:href="#R"/><use transform="matrix(0.015190972222222224,0,0,0.015190972222222224,20.067274305555557,0)" xlink:href="#S"/><use transform="matrix(0.015190972222222224,0,0,0.015190972222222224,30.868055555555557,0)" xlink:href="#T"/><use transform="matrix(0.015190972222222224,0,0,0.015190972222222224,48.45920138888889,0)" xlink:href="#U"/><use transform="matrix(0.015190972222222224,0,0,0.015190972222222224,65.98958333333334,0)" xlink:href="#V"/><use transform="matrix(0.015190972222222224,0,0,0.015190972222222224,83.39843750000001,0)" xlink:href="#W"/><use transform="matrix(0.015190972222222224,0,0,0.015190972222222224,99.62239583333334,0)" xlink:href="#X"/><use transform="matrix(0.015190972222222224,0,0,0.015190972222222224,110.13454861111111,0)" xlink:href="#Y"/><use transform="matrix(0.015190972222222224,0,0,0.015190972222222224,118.38324652777779,0)" xlink:href="#T"/><use transform="matrix(0.015190972222222224,0,0,0.015190972222222224,135.97439236111111,0)" xlink:href="#Z"/><use transform="matrix(0.015190972222222224,0,0,0.015190972222222224,153.3984375,0)" xlink:href="#aa"/><use transform="matrix(0.015190972222222224,0,0,0.015190972222222224,165.01953125,0)" xlink:href="#ab"/><use transform="matrix(0.015190972222222224,0,0,0.015190972222222224,184.87413194444446,0)" xlink:href="#S"/><use transform="matrix(0.015190972222222224,0,0,0.015190972222222224,195.67491319444446,0)" xlink:href="#T"/><use transform="matrix(0.015190972222222224,0,0,0.015190972222222224,213.2660590277778,0)" xlink:href="#ac"/><use transform="matrix(0.015190972222222224,0,0,0.015190972222222224,236.12847222222226,0)" xlink:href="#Z"/><use transform="matrix(0.015190972222222224,0,0,0.015190972222222224,253.55251736111114,0)" xlink:href="#ad"/><use transform="matrix(0.015190972222222224,0,0,0.015190972222222224,264.70269097222223,0)" xlink:href="#Y"/><use transform="matrix(0.015190972222222224,0,0,0.015190972222222224,272.9513888888889,0)" xlink:href="#ae"/><use transform="matrix(0.015190972222222224,0,0,0.015190972222222224,289.7677951388889,0)" xlink:href="#af"/><use transform="matrix(0.015190972222222224,0,0,0.015190972222222224,298.0164930555556,0)" xlink:href="#U"/><use transform="matrix(0.015190972222222224,0,0,0.015190972222222224,315.54687500000006,0)" xlink:href="#ag"/><path fill="#333" d="M-1.56 1.52h327.44v1.52H-1.56z"/></g><path fill="#333" d="M688-137c238 0 323-102 359-325h193c-32 297-228 482-552 482-361 0-569-299-569-680 0-197 8-360 73-497 88-186 257-317 513-319 316-2 509 195 535 488h-193c-31-212-118-330-342-330-272 0-397 224-393 523v141c-3 282 115 517 376 517" id="ah"/><path fill="#333" d="M920 151H4V0h916v151" id="ai"/><path fill="#333" d="M973-380H363L226 0H28l556-1456h168L1309 0h-197zM421-538h495l-248-681" id="aj"/><path fill="#333" d="M631-137c179 0 314-70 314-231 0-71-25-127-75-166s-141-77-272-115c-165-47-285-106-360-175s-112-154-112-255c0-245 231-397 495-397 206 0 369 89 449 218 43 68 65 142 65 223H942c0-184-129-283-321-283-172 0-299 76-301 236 0 59 26 109 76 150s135 78 256 113c205 59 345 116 436 256 35 53 50 119 50 193-2 256-231 398-507 390C333 12 90-129 80-422h193c0 187 160 285 358 285" id="ak"/><path fill="#333" d="M730-137c145 0 253-29 323-105v-327H716v-156h528v534C1148-51 964 20 729 20c-394 0-598-279-607-678v-127c-5-410 194-690 585-691 310-1 499 171 537 447h-192c-36-193-151-289-344-289-285 0-393 220-393 528v119c-5 296 140 534 415 534" id="al"/><g id="e"><use transform="matrix(0.015190972222222224,0,0,0.015190972222222224,0,0)" xlink:href="#ah"/><use transform="matrix(0.015190972222222224,0,0,0.015190972222222224,20.249565972222225,0)" xlink:href="#ah"/><use transform="matrix(0.015190972222222224,0,0,0.015190972222222224,40.49913194444445,0)" xlink:href="#ai"/><use transform="matrix(0.015190972222222224,0,0,0.015190972222222224,54.535590277777786,0)" xlink:href="#aj"/><use transform="matrix(0.015190972222222224,0,0,0.015190972222222224,74.83072916666667,0)" xlink:href="#ak"/><use transform="matrix(0.015190972222222224,0,0,0.015190972222222224,93.28776041666667,0)" xlink:href="#al"/></g><path d="M786 20C389 20 94-260 94-744c0-487 299-766 692-766 339 0 597 194 641 529h-309c-28-162-156-258-326-258-233 0-388 179-388 495 0 323 157 493 387 493 170 0 298-97 328-259h309c-34 277-266 530-642 530" id="am"/><path d="M428-1490V0H128v-1490h300" id="an"/><path d="M628 22C291 22 81-210 81-554c0-346 210-578 547-578 336 0 547 232 547 578 0 344-211 576-547 576zm0-236c160 0 242-146 242-341 0-197-82-341-242-341S387-753 387-555c0 195 81 341 241 341" id="ao"/><path d="M513 14c-232 0-385-159-385-421v-711h300v659c0 139 76 222 202 222 127 0 217-86 217-234v-647h301V0H864l-4-232C797-74 683 14 513 14" id="ap"/><path d="M537 19C279 19 81-185 81-557c0-382 206-575 454-575 190 0 278 113 318 202h10v-560h300V0H868v-179h-15C812-89 719 19 537 19zm92-241c153 0 240-134 240-336 0-203-86-334-240-334-158 0-240 138-240 334 0 197 84 336 240 336" id="aq"/><g id="f"><use transform="matrix(0.013020833333333334,0,0,0.013020833333333334,0,0)" xlink:href="#am"/><use transform="matrix(0.013020833333333334,0,0,0.013020833333333334,19.7265625,0)" xlink:href="#an"/><use transform="matrix(0.013020833333333334,0,0,0.013020833333333334,26.953125,0)" xlink:href="#ao"/><use transform="matrix(0.013020833333333334,0,0,0.013020833333333334,43.30729166666667,0)" xlink:href="#ap"/><use transform="matrix(0.013020833333333334,0,0,0.013020833333333334,59.90885416666667,0)" xlink:href="#aq"/></g><path d="M135 0v-1490h980v253H440v416h609v249H440V0H135" id="ar"/><path d="M428-647V0H128v-1118h283l4 231c63-156 176-245 348-245 232 0 384 159 384 421V0H847v-659c0-139-76-222-202-222-128 0-217 86-217 234" id="as"/><path d="M628 22C291 22 81-210 81-554c0-346 210-578 547-578 265 0 455 142 497 372l-279 52c-25-116-99-188-215-188-160 0-244 139-244 341 0 200 84 341 244 341 116 0 193-74 217-195l279 51C1085-123 896 22 628 22" id="at"/><path d="M683-1118v229H474v562c0 71 29 104 102 104 23 0 73-7 95-13l43 225C647 9 580 16 520 16 296 16 174-96 174-301v-588H20v-229h154v-266h300v266h209" id="au"/><path d="M128 0v-1118h300V0H128zm150-1264c-91 0-165-68-165-154 0-85 74-154 165-154 90 0 165 69 165 154 0 86-75 154-165 154" id="av"/><path d="M572 22C302 22 117-98 78-306l279-48c29 105 101 156 224 156 114 0 185-48 185-115 0-118-228-130-337-155-215-49-322-150-322-317 0-215 187-347 470-347 265 0 424 116 466 298l-266 47c-24-76-87-130-196-130-98 0-174 46-174 113 0 56 38 95 144 117l201 40c216 44 320 143 320 302 0 220-207 367-500 367" id="aw"/><g id="g"><use transform="matrix(0.013020833333333334,0,0,0.013020833333333334,0,0)" xlink:href="#ar"/><use transform="matrix(0.013020833333333334,0,0,0.013020833333333334,14.752604166666668,0)" xlink:href="#ap"/><use transform="matrix(0.013020833333333334,0,0,0.013020833333333334,31.354166666666668,0)" xlink:href="#as"/><use transform="matrix(0.013020833333333334,0,0,0.013020833333333334,47.95572916666667,0)" xlink:href="#at"/><use transform="matrix(0.013020833333333334,0,0,0.013020833333333334,63.64583333333335,0)" xlink:href="#au"/><use transform="matrix(0.013020833333333334,0,0,0.013020833333333334,73.41145833333334,0)" xlink:href="#av"/><use transform="matrix(0.013020833333333334,0,0,0.013020833333333334,80.63802083333334,0)" xlink:href="#ao"/><use transform="matrix(0.013020833333333334,0,0,0.013020833333333334,96.99218750000001,0)" xlink:href="#as"/><use transform="matrix(0.013020833333333334,0,0,0.013020833333333334,113.59375,0)" xlink:href="#aw"/></g><path d="M681 22C323 22 94-145 85-462h297c10 151 131 226 296 226 163 0 271-77 271-190 0-102-95-149-257-189l-164-41c-252-61-403-188-403-405 0-269 236-449 560-449 330 0 546 183 551 445H941c-11-119-106-188-259-188-156 0-244 72-244 172-3 156 226 185 373 221 250 61 445 186 445 436 0 271-213 446-575 446" id="ax"/><path d="M428-647V0H128v-1490h294v586c65-146 175-228 341-228 232 0 385 159 385 421V0H847v-659c0-139-76-222-202-222-128 0-217 86-217 234" id="ay"/><path d="M633 22C291 22 81-200 81-553c0-345 210-579 537-579 292 0 525 185 525 567v84H378c7 183 109 277 260 277 105 0 184-46 216-132l272 51C1071-99 893 22 633 22zM380-669h474c-15-146-94-237-233-237-143 0-229 99-241 237" id="az"/><path d="M128 0v-1118h290v195h12c54-169 184-238 367-200v268c-27-8-86-15-130-15-138 0-239 95-239 234V0H128" id="aA"/><g id="h"><use transform="matrix(0.013020833333333334,0,0,0.013020833333333334,0,0)" xlink:href="#ax"/><use transform="matrix(0.013020833333333334,0,0,0.013020833333333334,17.4609375,0)" xlink:href="#at"/><use transform="matrix(0.013020833333333334,0,0,0.013020833333333334,33.15104166666667,0)" xlink:href="#ay"/><use transform="matrix(0.013020833333333334,0,0,0.013020833333333334,49.75260416666667,0)" xlink:href="#az"/><use transform="matrix(0.013020833333333334,0,0,0.013020833333333334,65.63802083333334,0)" xlink:href="#aq"/><use transform="matrix(0.013020833333333334,0,0,0.013020833333333334,82.44791666666669,0)" xlink:href="#ap"/><use transform="matrix(0.013020833333333334,0,0,0.013020833333333334,99.04947916666669,0)" xlink:href="#an"/><use transform="matrix(0.013020833333333334,0,0,0.013020833333333334,106.27604166666669,0)" xlink:href="#az"/><use transform="matrix(0.013020833333333334,0,0,0.013020833333333334,122.16145833333336,0)" xlink:href="#aA"/></g><path fill="#333" d="M497-251l268-831h189L566 0H425L33-1082h189" id="aB"/><g id="i"><use transform="matrix(0.010959201388888886,0,0,0.010959201388888886,0,0)" xlink:href="#ak"/><use transform="matrix(0.010959201388888886,0,0,0.010959201388888886,13.315429687499996,0)" xlink:href="#C"/><use transform="matrix(0.010959201388888886,0,0,0.010959201388888886,25.206163194444432,0)" xlink:href="#N"/><use transform="matrix(0.010959201388888886,0,0,0.010959201388888886,32.998155381944436,0)" xlink:href="#aB"/><use transform="matrix(0.010959201388888886,0,0,0.010959201388888886,43.869683159722214,0)" xlink:href="#E"/><use transform="matrix(0.010959201388888886,0,0,0.010959201388888886,49.316406249999986,0)" xlink:href="#L"/><use transform="matrix(0.010959201388888886,0,0,0.010959201388888886,61.06467013888887,0)" xlink:href="#C"/></g><path fill="#333" d="M651-255l416-1201h210L737 0H567L28-1456h209" id="aC"/><path fill="#333" d="M1216-1011c-1 297-202 441-512 441H361V0H169v-1456h537c297-6 510 164 510 445zm-192 2c1-178-126-288-307-289H361v571h345c196 1 318-92 318-282" id="aD"/><g id="j"><use transform="matrix(0.010959201388888886,0,0,0.010959201388888886,0,0)" xlink:href="#aC"/><use transform="matrix(0.010959201388888886,0,0,0.010959201388888886,14.27983940972222,0)" xlink:href="#aD"/><use transform="matrix(0.010959201388888886,0,0,0.010959201388888886,28.43912760416666,0)" xlink:href="#ah"/></g><path d="M783 20c-382 0-661-292-661-764 0-473 279-766 661-766 302 0 548 182 601 489h-190c-42-204-217-313-411-313-268 0-476 208-476 590 0 381 209 588 476 588 195 0 369-110 411-313h190c-52 303-296 489-601 489" id="aE"/><path d="M338-1490V0H158v-1490h180" id="aF"/><path d="M613 24c-304 0-509-231-509-576 0-350 205-580 509-580 305 0 511 230 511 580 0 345-206 576-511 576zm0-161c226 0 329-195 329-415 0-222-103-419-329-419-223 0-326 196-326 419 0 220 103 415 326 415" id="aG"/><path d="M537 14c-226 0-379-139-379-422v-710h180v695c0 172 97 275 253 275 160 0 281-109 281-300v-670h181V0H879v-209C806-46 684 14 537 14" id="aH"/><path d="M577 24c-279 0-473-224-473-580 0-354 195-576 474-576 218 0 287 134 324 193h14v-551h180V0H922v-173h-20C865-111 790 24 577 24zm27-161c203 0 314-172 314-421 0-247-108-413-314-413-212 0-317 181-317 413 0 235 108 421 317 421" id="aI"/><g id="k"><use transform="matrix(0.010850694444444444,0,0,0.010850694444444444,0,0)" xlink:href="#aE"/><use transform="matrix(0.010850694444444444,0,0,0.010850694444444444,16.23263888888889,0)" xlink:href="#aF"/><use transform="matrix(0.010850694444444444,0,0,0.010850694444444444,21.614583333333336,0)" xlink:href="#aG"/><use transform="matrix(0.010850694444444444,0,0,0.010850694444444444,34.939236111111114,0)" xlink:href="#aH"/><use transform="matrix(0.010850694444444444,0,0,0.010850694444444444,48.07942708333333,0)" xlink:href="#aI"/></g><path d="M180 0v-1490h190v1322h690V0H180" id="aJ"/><path d="M471 26C259 26 90-98 90-318c0-256 228-303 435-329 202-27 287-16 287-108 0-139-79-219-234-219-161 0-248 86-283 164l-173-57c86-203 278-265 451-265 150 0 419 46 419 395V0H815v-152h-12C765-73 660 26 471 26zm31-159c199 0 310-134 310-271v-155c-30 35-226 55-295 64-131 17-246 59-246 186 0 116 97 176 231 176" id="aK"/><g id="l"><use transform="matrix(0.010850694444444444,0,0,0.010850694444444444,0,0)" xlink:href="#aJ"/><use transform="matrix(0.010850694444444444,0,0,0.010850694444444444,12.565104166666666,0)" xlink:href="#aG"/><use transform="matrix(0.010850694444444444,0,0,0.010850694444444444,26.106770833333332,0)" xlink:href="#aK"/><use transform="matrix(0.010850694444444444,0,0,0.010850694444444444,38.58506944444444,0)" xlink:href="#aI"/></g><path d="M180 0v-1490h528c311 0 458 177 458 395 0 191-114 278-244 313v14c139 9 302 137 302 371 0 225-148 397-499 397H180zm190-168h350c232 0 321-102 321-231 0-149-120-277-311-277H370v508zm0-668h328c160 0 286-101 286-255 0-129-87-231-280-231H370v486" id="aL"/><path d="M338-670V0H158v-1118h173l1 207c72-158 192-221 342-221 226 0 378 139 378 422V0H872v-695c0-172-96-275-252-275-161 0-282 109-282 300" id="aM"/><path d="M613 24c-304 0-509-231-509-576 0-350 205-580 509-580 216 0 392 114 453 309l-173 49c-33-115-133-197-280-197-223 0-326 196-326 419 0 220 103 415 326 415 150 0 252-85 285-206l172 49C1010-95 832 24 613 24" id="aN"/><path d="M158 0v-1118h180V0H158zm91-1301c-68 0-125-53-125-119s57-119 125-119c69 0 126 53 126 119s-57 119-126 119" id="aO"/><path d="M611 442c-248 0-391-105-460-228l146-94c47 65 117 165 314 165 178 0 307-82 307-266v-224h-17C863-141 792-18 576-18c-268 0-472-195-472-546 0-346 197-568 476-568 216 0 288 133 326 193h17v-179h175V29c0 289-215 413-487 413zm-5-620c203 0 314-146 314-390 0-237-108-403-314-403-213 0-319 180-319 403 0 230 109 390 319 390" id="aP"/><g id="m"><use transform="matrix(0.010850694444444444,0,0,0.010850694444444444,0,0)" xlink:href="#aL"/><use transform="matrix(0.010850694444444444,0,0,0.010850694444444444,14.539930555555555,0)" xlink:href="#aK"/><use transform="matrix(0.010850694444444444,0,0,0.010850694444444444,27.018229166666664,0)" xlink:href="#aF"/><use transform="matrix(0.010850694444444444,0,0,0.010850694444444444,32.40017361111111,0)" xlink:href="#aK"/><use transform="matrix(0.010850694444444444,0,0,0.010850694444444444,44.87847222222221,0)" xlink:href="#aM"/><use transform="matrix(0.010850694444444444,0,0,0.010850694444444444,58.007812499999986,0)" xlink:href="#aN"/><use transform="matrix(0.010850694444444444,0,0,0.010850694444444444,70.703125,0)" xlink:href="#aO"/><use transform="matrix(0.010850694444444444,0,0,0.010850694444444444,76.08506944444444,0)" xlink:href="#aM"/><use transform="matrix(0.010850694444444444,0,0,0.010850694444444444,89.21440972222221,0)" xlink:href="#aP"/></g><path d="M370-1490V0H180v-1490h190" id="aQ"/><path d="M538 24C308 24 148-78 108-271l171-41c32 123 123 178 257 178 156 0 256-77 256-169 0-77-54-128-164-154l-186-44c-203-48-300-148-300-305 0-192 176-326 414-326 230 0 351 112 402 269l-163 42c-31-80-94-158-238-158-133 0-233 69-233 162 0 83 57 129 188 160l169 40c203 48 298 149 298 302 0 196-179 339-441 339" id="aR"/><path d="M598-1118v154H368v674c0 100 37 144 132 144 23 0 62-6 92-12L629-6c-37 13-88 20-134 20-193 0-307-107-307-290v-688H20v-154h168v-266h180v266h230" id="aS"/><path d="M628 24c-324 0-524-230-524-574 0-343 198-582 503-582 237 0 487 146 487 559v75H286c9 234 145 362 343 362 132 0 231-58 273-172l174 48C1024-91 857 24 628 24zM287-650h624c-17-190-120-322-304-322-192 0-309 151-320 322" id="aT"/><g id="n"><use transform="matrix(0.010850694444444444,0,0,0.010850694444444444,0,0)" xlink:href="#aQ"/><use transform="matrix(0.010850694444444444,0,0,0.010850694444444444,5.967881944444445,0)" xlink:href="#aM"/><use transform="matrix(0.010850694444444444,0,0,0.010850694444444444,19.09722222222222,0)" xlink:href="#aR"/><use transform="matrix(0.010850694444444444,0,0,0.010850694444444444,30.826822916666664,0)" xlink:href="#aS"/><use transform="matrix(0.010850694444444444,0,0,0.010850694444444444,38.205295138888886,0)" xlink:href="#aK"/><use transform="matrix(0.010850694444444444,0,0,0.010850694444444444,50.68359375,0)" xlink:href="#aM"/><use transform="matrix(0.010850694444444444,0,0,0.010850694444444444,63.81293402777778,0)" xlink:href="#aN"/><use transform="matrix(0.010850694444444444,0,0,0.010850694444444444,76.50824652777777,0)" xlink:href="#aT"/></g><path d="M789 20c-398 0-667-293-667-764 0-473 273-766 655-766 315 0 558 198 612 487h-196c-61-191-204-311-415-311-262 0-471 207-471 590 0 380 208 588 482 588 249 0 420-165 425-427H828v-166h572v163c0 370-256 606-611 606" id="aU"/><path d="M158 0v-1118h174v172h12c41-113 157-188 290-188 26 0 70 2 91 3v181c-11-2-60-10-108-10-161 0-279 109-279 260V0H158" id="aV"/><path d="M158 418v-1536h174v179h20c37-59 106-193 324-193 279 0 474 222 474 576 0 356-194 580-473 580-213 0-288-135-325-197h-14v591H158zm492-555c209 0 317-186 317-421 0-232-105-413-317-413-206 0-314 166-314 413 0 249 111 421 314 421" id="aW"/><g id="o"><use transform="matrix(0.010850694444444444,0,0,0.010850694444444444,0,0)" xlink:href="#aU"/><use transform="matrix(0.010850694444444444,0,0,0.010850694444444444,16.57986111111111,0)" xlink:href="#aV"/><use transform="matrix(0.010850694444444444,0,0,0.010850694444444444,24.576822916666664,0)" xlink:href="#aG"/><use transform="matrix(0.010850694444444444,0,0,0.010850694444444444,37.90147569444444,0)" xlink:href="#aH"/><use transform="matrix(0.010850694444444444,0,0,0.010850694444444444,51.041666666666664,0)" xlink:href="#aW"/></g><path fill="#3a414a" d="M783 20c-382 0-661-292-661-764 0-473 279-766 661-766 302 0 548 182 601 489h-190c-42-204-217-313-411-313-268 0-476 208-476 590 0 381 209 588 476 588 195 0 369-110 411-313h190c-52 303-296 489-601 489" id="aX"/><path fill="#3a414a" d="M338-1490V0H158v-1490h180" id="aY"/><path fill="#3a414a" d="M613 24c-304 0-509-231-509-576 0-350 205-580 509-580 305 0 511 230 511 580 0 345-206 576-511 576zm0-161c226 0 329-195 329-415 0-222-103-419-329-419-223 0-326 196-326 419 0 220 103 415 326 415" id="aZ"/><path fill="#3a414a" d="M537 14c-226 0-379-139-379-422v-710h180v695c0 172 97 275 253 275 160 0 281-109 281-300v-670h181V0H879v-209C806-46 684 14 537 14" id="ba"/><path fill="#3a414a" d="M577 24c-279 0-473-224-473-580 0-354 195-576 474-576 218 0 287 134 324 193h14v-551h180V0H922v-173h-20C865-111 790 24 577 24zm27-161c203 0 314-172 314-421 0-247-108-413-314-413-212 0-317 181-317 413 0 235 108 421 317 421" id="bb"/><g id="p"><use transform="matrix(0.010850694444444444,0,0,0.010850694444444444,0,0)" xlink:href="#aX"/><use transform="matrix(0.010850694444444444,0,0,0.010850694444444444,16.23263888888889,0)" xlink:href="#aY"/><use transform="matrix(0.010850694444444444,0,0,0.010850694444444444,21.614583333333336,0)" xlink:href="#aZ"/><use transform="matrix(0.010850694444444444,0,0,0.010850694444444444,34.939236111111114,0)" xlink:href="#ba"/><use transform="matrix(0.010850694444444444,0,0,0.010850694444444444,48.07942708333333,0)" xlink:href="#bb"/></g><path fill="#3a414a" d="M180 0v-1490h224l606 953c40 63 108 177 176 312-27-437-7-821-13-1265h190V0h-226C860-448 622-778 356-1262c27 476 11 792 15 1262H180" id="bc"/><path fill="#3a414a" d="M52 0l541-1490h220L1361 0h-200l-149-416H398L254 0H52zm404-582h497c-103-290-145-390-251-756-108 377-145 460-246 756" id="bd"/><path fill="#3a414a" d="M98-1322v-168h1126v168H757V0H567v-1322H98" id="be"/><g id="q"><use transform="matrix(0.010850694444444444,0,0,0.010850694444444444,0,0)" xlink:href="#bc"/><use transform="matrix(0.010850694444444444,0,0,0.010850694444444444,16.74262152777778,0)" xlink:href="#bd"/><use transform="matrix(0.010850694444444444,0,0,0.010850694444444444,30.186631944444443,0)" xlink:href="#be"/></g><g id="r"><use transform="matrix(0.013020833333333334,0,0,0.013020833333333334,0,0)" xlink:href="#ax"/><use transform="matrix(0.013020833333333334,0,0,0.013020833333333334,17.4609375,0)" xlink:href="#az"/><use transform="matrix(0.013020833333333334,0,0,0.013020833333333334,33.34635416666667,0)" xlink:href="#at"/><use transform="matrix(0.013020833333333334,0,0,0.013020833333333334,49.03645833333334,0)" xlink:href="#aA"/><use transform="matrix(0.013020833333333334,0,0,0.013020833333333334,59.24479166666668,0)" xlink:href="#az"/><use transform="matrix(0.013020833333333334,0,0,0.013020833333333334,75.13020833333334,0)" xlink:href="#au"/></g><path d="M135 0v-1490h468l242 684c30 94 76 293 111 455 34-161 80-360 110-455l238-684h470V0h-307c0-447-3-765 11-1227-122 503-246 788-395 1227H826C676-435 552-717 427-1215c15 453 11 775 11 1215H135" id="bf"/><path d="M440 22C227 22 68-92 68-313c0-250 202-322 422-343 195-21 271-24 271-105 0-95-63-149-175-149-116 0-187 57-211 129l-275-46c57-194 237-305 487-305 240 0 474 108 474 379V0H777v-155h-10C713-51 605 22 440 22zm85-211c140 0 238-93 238-211v-121c-37 26-156 42-222 51-111 16-185 59-185 149 0 87 70 132 169 132" id="bg"/><path d="M625 442c-280 0-454-114-503-274l258-72c28 63 97 128 243 128 153 0 246-69 246-216v-206h-23C805-108 717-16 536-16 284-16 81-191 81-561c0-378 208-571 456-571 188 0 280 113 321 202h13v-188h295V-9c0 303-226 451-541 451zm5-686c153 0 240-119 240-319 0-198-86-329-240-329-158 0-241 137-241 329 0 195 85 319 241 319" id="bh"/><g id="s"><use transform="matrix(0.013020833333333334,0,0,0.013020833333333334,0,0)" xlink:href="#bf"/><use transform="matrix(0.013020833333333334,0,0,0.013020833333333334,24.84375,0)" xlink:href="#bg"/><use transform="matrix(0.013020833333333334,0,0,0.013020833333333334,40.325520833333336,0)" xlink:href="#as"/><use transform="matrix(0.013020833333333334,0,0,0.013020833333333334,56.927083333333336,0)" xlink:href="#bg"/><use transform="matrix(0.013020833333333334,0,0,0.013020833333333334,72.40885416666667,0)" xlink:href="#bh"/><use transform="matrix(0.013020833333333334,0,0,0.013020833333333334,89.2578125,0)" xlink:href="#az"/><use transform="matrix(0.013020833333333334,0,0,0.013020833333333334,105.14322916666667,0)" xlink:href="#aA"/></g><path fill="#333" d="M417-1456L893-268l476-1188h249V0h-192c-4-403 4-794 18-1179L966 0H819L342-1176c15 384 23 773 19 1176H169v-1456h248" id="bi"/><path fill="#333" d="M1240-945c-141 0-250 95-250 227V0H804v-709c0-157-77-236-231-236-121 0-204 52-249 155V0H139v-1082h175l5 120c79-93 186-140 321-140 151 0 254 58 309 174 69-98 181-174 345-174 237 0 362 126 362 377V0h-185v-714c-2-159-67-231-231-231" id="bj"/><g id="t"><use transform="matrix(0.010959201388888886,0,0,0.010959201388888886,0,0)" xlink:href="#bi"/><use transform="matrix(0.010959201388888886,0,0,0.010959201388888886,19.59505208333333,0)" xlink:href="#D"/><use transform="matrix(0.010959201388888886,0,0,0.010959201388888886,32.18717447916666,0)" xlink:href="#bj"/><use transform="matrix(0.010959201388888886,0,0,0.010959201388888886,51.85894097222221,0)" xlink:href="#M"/></g><path fill="#333" d="M313-157h833V0H86v-144l798-1154H99v-158h1015v141" id="bk"/><g id="u"><use transform="matrix(0.010850694444444444,0,0,0.010850694444444444,0,0)" xlink:href="#bk"/><use transform="matrix(0.010850694444444444,0,0,0.010850694444444444,13.075086805555555,0)" xlink:href="#F"/><use transform="matrix(0.010850694444444444,0,0,0.010850694444444444,25.748697916666664,0)" xlink:href="#G"/><use transform="matrix(0.010850694444444444,0,0,0.010850694444444444,38.009982638888886,0)" xlink:href="#C"/><use transform="matrix(0.010850694444444444,0,0,0.010850694444444444,49.78298611111111,0)" xlink:href="#H"/></g><g id="v"><use transform="matrix(0.010850694444444444,0,0,0.010850694444444444,0,0)" xlink:href="#I"/><use transform="matrix(0.010850694444444444,0,0,0.010850694444444444,12.250434027777777,0)" xlink:href="#J"/><use transform="matrix(0.010850694444444444,0,0,0.010850694444444444,23.708767361111104,0)" xlink:href="#K"/><use transform="matrix(0.010850694444444444,0,0,0.010850694444444444,29.839409722222218,0)" xlink:href="#L"/><use transform="matrix(0.010850694444444444,0,0,0.010850694444444444,41.471354166666664,0)" xlink:href="#C"/><use transform="matrix(0.010850694444444444,0,0,0.010850694444444444,53.244357638888886,0)" xlink:href="#G"/><use transform="matrix(0.010850694444444444,0,0,0.010850694444444444,65.50564236111111,0)" xlink:href="#M"/><use transform="matrix(0.010850694444444444,0,0,0.010850694444444444,72.76475694444444,0)" xlink:href="#N"/><use transform="matrix(0.010850694444444444,0,0,0.010850694444444444,79.85026041666667,0)" xlink:href="#O"/><use transform="matrix(0.010850694444444444,0,0,0.010850694444444444,91.9379340277778,0)" xlink:href="#P"/><use transform="matrix(0.010850694444444444,0,0,0.010850694444444444,97.33072916666666,0)" xlink:href="#Q"/><use transform="matrix(0.010850694444444444,0,0,0.010850694444444444,109.8090277777778,0)" xlink:href="#O"/></g><path fill="#fff" d="M783 20c-382 0-661-292-661-764 0-473 279-766 661-766 302 0 548 182 601 489h-190c-42-204-217-313-411-313-268 0-476 208-476 590 0 381 209 588 476 588 195 0 369-110 411-313h190c-52 303-296 489-601 489" id="bl"/><g id="w"><use transform="matrix(0.012858072916666664,0,0,0.012858072916666664,0,0)" xlink:href="#bl"/><use transform="matrix(0.012858072916666664,0,0,0.012858072916666664,19.23567708333333,0)" xlink:href="#bl"/></g><path fill="#333" d="M634-1102c292 0 422 254 422 573 0 298-143 547-420 549-137 0-242-48-317-145L310 0H140v-1536h185v573c75-93 178-139 309-139zm-44 965c207 0 281-175 281-413 0-224-79-395-283-395-122 0-210 57-263 170v468c57 113 145 170 265 170" id="bm"/><g id="x"><use transform="matrix(0.010850694444444444,0,0,0.010850694444444444,0,0)" xlink:href="#I"/><use transform="matrix(0.010850694444444444,0,0,0.010850694444444444,12.250434027777777,0)" xlink:href="#J"/><use transform="matrix(0.010850694444444444,0,0,0.010850694444444444,23.708767361111104,0)" xlink:href="#K"/><use transform="matrix(0.010850694444444444,0,0,0.010850694444444444,29.839409722222218,0)" xlink:href="#L"/><use transform="matrix(0.010850694444444444,0,0,0.010850694444444444,41.471354166666664,0)" xlink:href="#C"/><use transform="matrix(0.010850694444444444,0,0,0.010850694444444444,53.244357638888886,0)" xlink:href="#G"/><use transform="matrix(0.010850694444444444,0,0,0.010850694444444444,65.50564236111111,0)" xlink:href="#M"/><use transform="matrix(0.010850694444444444,0,0,0.010850694444444444,72.76475694444444,0)" xlink:href="#N"/><use transform="matrix(0.010850694444444444,0,0,0.010850694444444444,79.85026041666667,0)" xlink:href="#O"/><use transform="matrix(0.010850694444444444,0,0,0.010850694444444444,91.9379340277778,0)" xlink:href="#P"/><use transform="matrix(0.010850694444444444,0,0,0.010850694444444444,97.33072916666666,0)" xlink:href="#Q"/><use transform="matrix(0.010850694444444444,0,0,0.010850694444444444,109.8090277777778,0)" xlink:href="#bm"/></g><path d="M180 0v-1490h270l367 940c28 72 75 218 110 339 35-117 81-264 110-339l362-940h271V0h-187c2-448-5-837 7-1287-157 497-311 829-483 1287H842C666-458 514-784 354-1284c12 438 5 843 7 1284H180" id="bn"/><g id="y"><use transform="matrix(0.010850694444444444,0,0,0.010850694444444444,0,0)" xlink:href="#bn"/><use transform="matrix(0.010850694444444444,0,0,0.010850694444444444,20.07378472222222,0)" xlink:href="#aQ"/><use transform="matrix(0.010850694444444444,0,0,0.010850694444444444,26.041666666666664,0)" xlink:href="#aU"/></g><path d="M158 0v-1118h175l1 205c55-151 181-225 313-225 147 0 245 90 285 228 53-141 190-228 352-228 194 0 352 125 352 384V0h-181v-749c0-161-105-225-225-225-151 0-243 103-243 244V0H807v-767c0-124-93-207-219-207-131 0-250 92-250 270V0H158" id="bo"/><path d="M295 13c-75 0-135-60-135-135s60-135 135-135 135 60 135 135S370 13 295 13zm0-809c-75 0-135-60-135-135s60-135 135-135 135 60 135 135-60 135-135 135" id="bp"/><path d="M653-1490V0H466v-1314h-10L96-1047v-204l324-239h233" id="bq"/><g id="z"><use transform="matrix(0.010850694444444444,0,0,0.010850694444444444,0,0)" xlink:href="#bo"/><use transform="matrix(0.010850694444444444,0,0,0.010850694444444444,19.466145833333332,0)" xlink:href="#aO"/><use transform="matrix(0.010850694444444444,0,0,0.010850694444444444,24.84809027777778,0)" xlink:href="#aM"/><use transform="matrix(0.010850694444444444,0,0,0.010850694444444444,37.97743055555556,0)" xlink:href="#bp"/><use transform="matrix(0.010850694444444444,0,0,0.010850694444444444,44.37934027777778,0)" xlink:href="#bq"/></g><path d="M65 0l393-574-370-544h210c88 136 192 297 267 435 67-142 176-302 264-435h206L661-564 1053 0H844c-94-144-206-310-287-458C484-308 366-142 273 0H65" id="br"/><path d="M154 0v-137l495-537c165-179 249-281 249-418 0-156-121-253-280-253-170 0-278 110-278 278H158c0-264 200-443 465-443 266 0 455 183 455 416 0 161-73 288-336 568L416-179v12h687V0H154" id="bs"/><g id="A"><use transform="matrix(0.010850694444444444,0,0,0.010850694444444444,0,0)" xlink:href="#bo"/><use transform="matrix(0.010850694444444444,0,0,0.010850694444444444,19.466145833333332,0)" xlink:href="#aK"/><use transform="matrix(0.010850694444444444,0,0,0.010850694444444444,31.944444444444443,0)" xlink:href="#br"/><use transform="matrix(0.010850694444444444,0,0,0.010850694444444444,44.07552083333333,0)" xlink:href="#bp"/><use transform="matrix(0.010850694444444444,0,0,0.010850694444444444,50.47743055555556,0)" xlink:href="#bs"/></g></defs></g></svg>
